Coordinates
version=1
nRows=34
nColumns=19
inDegrees=yes

Units are S.I. units (second, meters, Newtons, ...)
If the header above contains a line with 'inDegrees', this indicates whether rotational values are in degrees (yes) or radians (no).

endheader
time	pelvis_tilt	pelvis_list	pelvis_rotation	pelvis_tx	pelvis_ty	pelvis_tz	hip_flexion_r	hip_adduction_r	hip_rotation_r	knee_angle_r	knee_angle_r_beta	ankle_angle_r	hip_flexion_l	hip_adduction_l	hip_rotation_l	knee_angle_l	knee_angle_l_beta	ankle_angle_l
     11.56666667	     -8.72440683	     -4.65369704	     -5.64205436	      2.16881495	      1.05228694	      1.05323231	     29.82766238	      9.04433205	     -5.50775375	     10.91531995	      0.19050827	      0.01871425	    -12.69807476	    -10.45829149	    -18.83777676	     49.10982848	      0.85712820	    -15.16257014
     11.57333333	     -7.74192826	     -5.08463720	     -5.84648379	      2.16808945	      1.04936428	      1.05372224	     29.33612859	      9.31799917	     -6.59336395	     13.50510100	      0.23570848	      0.54976109	    -12.93494523	    -11.23102897	    -18.69927501	     51.99848813	      0.90754482	    -14.70507696
     11.58000000	     -7.29766510	     -5.21378087	     -6.04291269	      2.16693358	      1.04534789	      1.05408475	     29.71404560	      9.20727954	     -7.72934016	     16.86802562	      0.29440259	      1.32043276	    -12.33332634	    -11.68238015	    -18.21337050	     55.04830915	      0.96077424	    -14.22290568
     11.58666667	     -6.32542155	     -5.62288191	     -6.31170309	      2.16584120	      1.04168486	      1.05425087	     29.40757903	      9.30207517	     -8.75053026	     20.29373713	      0.35419253	      2.25687946	    -12.36719489	    -12.35137387	    -18.00255692	     57.96572716	      1.01169279	    -13.74717084
     11.59333333	     -5.98342418	     -5.62125716	     -6.55914090	      2.16429338	      1.03697992	      1.05421029	     29.90897110	      8.96630122	     -9.48662324	     24.07239044	      0.42014247	      3.41267611	    -11.41951346	    -12.58359751	    -17.41347823	     61.02100830	      1.06501751	    -13.18002939
     11.60000000	     -5.41312771	     -5.77566810	     -6.85130493	      2.16271243	      1.03245471	      1.05400488	     30.00359048	      8.77335396	     -9.99970421	     27.71446156	      0.48370860	      4.75519184	    -10.70783804	    -12.91887578	    -16.94713595	     63.96989424	      1.11648528	    -12.53736891
     11.60666667	     -4.92861737	     -5.91530888	     -7.16363623	      2.16099647	      1.02787318	      1.05362517	     30.05804481	      8.59662442	    -10.22427199	     31.20606841	      0.54464864	      6.31609470	     -9.80173458	    -13.18788858	    -16.42803710	     66.85489774	      1.16683809	    -11.80225513
     11.61333333	     -4.30369266	     -6.29779183	     -7.53712252	      2.15927719	      1.02364232	      1.05329304	     29.68814548	      8.73028270	    -10.21826243	     34.29925671	      0.59863496	      8.05199354	     -9.06778626	    -13.71930290	    -16.09785372	     69.61841404	      1.21507054	    -10.97384526
     11.62000000	     -4.51779401	     -6.21197525	     -7.88698000	      2.15717636	      1.01862975	      1.05286650	     30.21624079	      8.49185278	     -9.95062335	     37.34120482	      0.65172697	      9.93755399	     -7.08246189	    -13.74559242	    -15.33478642	     72.43877843	      1.26429519	    -10.09484904
     11.62666667	     -4.11245802	     -6.64209915	     -8.26868066	      2.15526247	      1.01491883	      1.05246562	     29.64358782	      8.79390661	     -9.60995030	     39.71526783	      0.69316219	     11.97393695	     -5.92186143	    -14.30434093	    -14.91383352	     74.97668283	      1.30858998	     -9.14850998
     11.63333333	     -4.87338824	     -6.53157853	     -8.58553238	      2.15298896	      1.01025690	      1.05205215	     30.28486157	      8.68719471	     -9.12279880	     41.91215198	      0.73150505	     13.90149139	     -3.08848933	    -14.35144451	    -13.98830546	     77.59443251	      1.35427833	     -8.23299124
     11.64000000	     -5.30511983	     -6.65281190	     -8.86552922	      2.15083748	      1.00665331	      1.05164856	     30.22737414	      8.79872218	     -8.66608603	     43.54891747	      0.76007200	     15.86072466	     -0.63941933	    -14.62604909	    -13.17399627	     79.93276955	      1.39509001	     -7.32038595
     11.64666667	     -5.86434235	     -6.78354835	     -9.01635215	      2.14874927	      1.00360993	      1.05119465	     30.03729285	      8.90539297	     -8.29046570	     44.70744222	      0.78029207	     17.74240832	      2.06871961	    -14.92785776	    -12.21528940	     82.07454921	      1.43247112	     -6.46299804
     11.65333333	     -6.46419578	     -6.85065207	     -9.08921458	      2.14672057	      1.00123270	      1.05074991	     29.66513551	      8.93159446	     -7.95937611	     45.45714521	      0.79337685	     19.49056570	      4.90981377	    -15.12114137	    -11.17603869	     83.95893015	      1.46535977	     -5.67785232
     11.66000000	     -7.06511325	     -6.85750629	     -9.00917472	      2.14481957	      0.99961688	      1.05026430	     29.06375933	      8.86146830	     -7.69990971	     45.77038513	      0.79884392	     21.04585570	      7.83798499	    -15.20043273	    -10.02448877	     85.55351522	      1.49319053	     -4.92609277
     11.66666667	     -7.57685881	     -6.77898887	     -8.82359295	      2.14312778	      0.99884137	      1.04980280	     28.16597579	      8.67961833	     -7.46544671	     45.70511357	      0.79770472	     22.39990943	     10.68823392	    -15.13290261	     -8.88718402	     86.80819868	      1.51508888	     -4.24381166
     11.67333333	     -7.54666341	     -6.59153660	     -8.85373960	      2.14168286	      0.99956867	      1.04973155	     26.48387862	      8.52224768	     -6.75540766	     45.27453880	      0.79018977	     23.48357507	     12.74411607	    -14.88552131	     -8.22246588	     87.57178327	      1.52841595	     -3.61389319
     11.68000000	     -8.16230881	     -6.41304264	     -8.11217160	      2.14046139	      0.99997961	      1.04890460	     25.36389448	      8.00700002	     -7.14988543	     44.54067623	      0.77738145	     24.38341695	     15.84740268	    -14.56049876	     -6.75735981	     88.24275757	      1.54012666	     -2.97410566
     11.68666667	     -8.24214725	     -5.96418161	     -7.99381705	      2.13957547	      1.00193857	      1.04900805	     23.53031592	      7.58119100	     -6.51559676	     43.53768155	      0.75987589	     24.84880002	     17.91214762	    -14.05858430	     -6.34184302	     88.30391236	      1.54119401	     -2.37635114
     11.69333333	     -8.12943781	     -5.66759195	     -7.05268463	      2.13889375	      1.00444972	      1.04811662	     21.36749491	      6.91426022	     -6.89957810	     42.27457782	      0.73783057	     25.22599331	     19.99730765	    -13.35867272	     -5.14575902	     88.19048307	      1.53921430	     -1.72996973
     11.70000000	     -7.81368728	     -5.21538632	     -6.39710703	      2.13861223	      1.00789650	      1.04771364	     18.86722607	      6.27094092	     -6.87188336	     40.76883074	      0.71155033	     25.13031541	     21.54709448	    -12.60393003	     -4.56347855	     87.61630173	      1.52919294	     -1.09340392
     11.70666667	     -7.34889094	     -4.66227635	     -5.74187827	      2.13859628	      1.01196309	      1.04736407	     16.13680854	      5.56651968	     -6.78571571	     39.08574614	      0.68217496	     24.72061221	     22.75712789	    -11.75590671	     -4.23298152	     86.68845555	      1.51299897	     -0.41477443
     11.71333333	     -7.43600976	     -3.97881447	     -5.37995249	      2.13863468	      1.01563915	      1.04739026	     14.04190150	      4.92813718	     -6.28407931	     37.42723449	      0.65322847	     23.88063346	     24.38645197	    -10.93615555	     -4.29984994	     85.52349522	      1.49266658	      0.25522038
     11.72000000	     -5.90902135	     -3.44487575	     -4.53741092	      2.13954659	      1.02174493	      1.04690684	      9.91593347	      4.13483980	     -6.60337101	     35.24104155	      0.61507221	     22.72018319	     24.03710658	    -10.06818714	     -4.31070358	     83.86084453	      1.46364785	      0.99897331
     11.72666667	     -5.09615718	     -2.78590462	     -4.06265623	      2.14041237	      1.02709718	      1.04682774	      6.63828415	      3.45948291	     -6.34188726	     33.11953714	      0.57804497	     21.15150949	     24.29393018	     -9.28094115	     -4.73970494	     82.02591193	      1.43162224	      1.74616312
     11.73333333	     -4.44464789	     -2.07039893	     -3.61855968	      2.14142137	      1.03231875	      1.04671263	      3.58201668	      2.71950143	     -6.19675840	     31.03234272	      0.54161656	     19.15946650	     24.59586766	     -8.46275406	     -5.31089502	     79.97337979	      1.39579879	      2.45570399
     11.74000000	     -3.94966464	     -1.31208136	     -3.16820710	      2.14256317	      1.03740117	      1.04652850	      0.74501987	      1.93664449	     -6.18675840	     28.98514440	      0.50588620	     16.79175063	     24.94746276	     -7.60010771	     -5.96849152	     77.70701608	      1.35624328	      3.07835712
     11.74666667	     -3.47821808	     -0.57675410	     -2.83295033	      2.14387366	      1.04247654	      1.04639542	     -2.02644499	      1.19987697	     -6.07910257	     26.93909439	      0.47017589	     14.06816763	     25.15791490	     -6.81331445	     -6.82146820	     75.22129544	      1.31285927	      3.71998456
     11.75333333	     -3.21669470	      0.18316307	     -2.52217883	      2.14524610	      1.04728598	      1.04621246	     -4.45965080	      0.42747236	     -6.06914863	     25.03382542	      0.43692268	     11.04343906	     25.48644118	     -5.99038493	     -7.74329674	     72.54275050	      1.26610984	      4.22632530
     11.76000000	     -3.10625065	      0.90634562	     -2.28045995	      2.14663331	      1.05188312	      1.04598580	     -6.61852473	     -0.31365859	     -6.03759200	     23.24687503	      0.40573451	      7.76525109	     25.85916539	     -5.21438463	     -8.75905365	     69.68073756	      1.21615830	      4.61401254
     11.76666667	     -3.18292594	      1.61310395	     -1.99125345	      2.14799036	      1.05621088	      1.04557859	     -8.43549602	     -1.05292914	     -6.15165140	     21.65102041	      0.37788159	      4.31370831	     26.35277674	     -4.36992984	     -9.70659374	     66.64355008	      1.16314937	      4.91506502
     11.77333333	     -3.39831076	      2.27862451	     -1.74751824	      2.14937329	      1.06032261	      1.04511698	     -9.97257169	     -1.76081802	     -6.23714900	     20.22233727	      0.35294637	      0.74936949	     26.88334759	     -3.54531751	    -10.68970829	     63.42178114	      1.10691890	      5.05631690
     11.78000000	     -3.82160757	      2.86572221	     -1.48082955	      2.15056838	      1.06412364	      1.04446961	    -11.09727214	     -2.40836451	     -6.37698979	     19.06495355	      0.33274621	     -2.84540244	     27.56737084	     -2.70197919	    -11.54438551	     60.04784601	      1.04803262	      5.10388293
     11.78666667	     -4.34042304	      3.39043684	     -1.17213270	      2.15171709	      1.06770016	      1.04360444	    -11.97789325	     -3.00493338	     -6.56129464	     18.12167531	      0.31628290	     -6.39394879	     28.26708433	     -1.82177115	    -12.27635036	     56.50792340	      0.98624932	      5.04503349
